<?xml version="1.0" standalone="no"?>
<!DOCTYPE svg PUBLIC "-//W3C//DTD SVG 20010904//EN"
 "http://www.w3.org/TR/2001/REC-SVG-20010904/DTD/svg10.dtd">
<svg version="1.0" xmlns="http://www.w3.org/2000/svg"
 width="512.000000pt" height="512.000000pt" viewBox="0 0 512.000000 512.000000"
 preserveAspectRatio="xMidYMid meet">

<g transform="translate(0.000000,512.000000) scale(0.100000,-0.100000)"
fill="#000000" stroke="none">
<path d="M700 3819 l0 -160 -81 -119 c-96 -142 -179 -222 -289 -279 -89 -47
-209 -81 -282 -81 l-48 0 0 -150 0 -150 58 0 c76 0 220 31 307 65 91 36 211
107 274 162 27 23 52 43 55 43 3 0 6 -130 6 -290 l0 -290 -350 0 -350 0 0
-150 0 -150 350 0 350 0 0 -265 0 -265 -90 0 -90 0 0 -300 0 -300 760 0 760 0
0 300 0 300 -90 0 -90 0 0 265 0 265 700 0 700 0 0 -265 0 -265 -90 0 -90 0 0
-300 0 -300 760 0 760 0 0 300 0 300 -90 0 -90 0 0 265 0 265 350 0 350 0 0
150 0 150 -350 0 -350 0 0 290 c0 160 4 290 8 290 5 0 17 -10 28 -21 36 -40
142 -109 237 -154 115 -55 223 -84 340 -92 l87 -6 0 152 0 151 -48 0 c-73 0
-193 34 -282 81 -110 57 -193 137 -289 279 l-81 119 0 160 0 161 -150 0 -150
0 0 -60 0 -60 -65 0 -65 0 0 60 0 60 -150 0 -150 0 0 -60 0 -60 -65 0 -65 0 0
60 0 60 -150 0 -150 0 0 -161 0 -160 -81 -119 c-48 -71 -107 -144 -145 -179
-264 -241 -684 -241 -948 0 -38 35 -97 108 -145 179 l-81 119 0 160 0 161
-150 0 -150 0 0 -60 0 -60 -65 0 -65 0 0 60 0 60 -150 0 -150 0 0 -60 0 -60
-65 0 -65 0 0 60 0 60 -150 0 -150 0 0 -161z m730 -924 l0 -475 -150 0 -150 0
0 475 0 475 150 0 150 0 0 -475z m2560 0 l0 -475 -150 0 -150 0 0 475 0 475
150 0 150 0 0 -475z m-2094 234 c65 -72 272 -183 410 -220 119 -32 329 -37
454 -11 163 33 329 112 439 209 27 23 52 43 55 43 3 0 6 -130 6 -290 l0 -290
-700 0 -700 0 0 290 c0 160 4 290 8 290 5 0 17 -10 28 -21z"/>
</g>
</svg>
