<?xml version="1.0" standalone="no"?>
<!DOCTYPE svg PUBLIC "-//W3C//DTD SVG 20010904//EN"
 "http://www.w3.org/TR/2001/REC-SVG-20010904/DTD/svg10.dtd">
<svg version="1.0" xmlns="http://www.w3.org/2000/svg"
 width="512.000000pt" height="512.000000pt" viewBox="0 0 512.000000 512.000000"
 preserveAspectRatio="xMidYMid meet">

<g transform="translate(0.000000,512.000000) scale(0.100000,-0.100000)"
fill="#000000" stroke="none">
<path d="M910 4970 l0 -150 -455 0 -455 0 0 -2410 0 -2410 2560 0 2560 0 0
1355 0 1355 -455 0 -455 0 0 150 0 150 455 0 455 0 0 150 0 150 -455 0 -455 0
0 455 0 455 455 0 455 0 0 150 0 150 -455 0 -455 0 0 300 0 300 -150 0 -150 0
0 -300 0 -300 -600 0 -600 0 0 300 0 300 -150 0 -150 0 0 -300 0 -300 -313 0
-312 0 -25 53 c-13 28 -52 79 -85 113 -97 98 -195 134 -362 134 l-103 0 0 150
0 150 -150 0 -150 0 0 -150z m520 -470 c26 -13 47 -34 60 -60 20 -38 20 -57
20 -845 0 -877 0 -885 57 -1020 75 -178 230 -333 409 -408 106 -45 195 -57
414 -57 233 0 263 -8 300 -80 19 -36 20 -58 20 -313 0 -307 9 -371 72 -490 42
-81 164 -203 245 -245 133 -70 286 -88 427 -52 113 29 190 73 276 160 87 86
131 163 160 276 18 71 20 112 20 501 0 480 -1 477 78 521 39 22 44 22 436 22
l396 0 0 -1055 0 -1055 -2260 0 -2260 0 0 2110 0 2110 545 0 c527 0 547 -1
585 -20z m980 -735 l0 -455 -300 0 -300 0 0 455 0 455 300 0 300 0 0 -455z
m1500 0 l0 -455 -600 0 -600 0 0 455 0 455 600 0 600 0 0 -455z m-1500 -1055
l0 -300 -95 0 c-172 0 -272 37 -370 135 -98 98 -135 198 -135 370 l0 95 300 0
300 0 0 -300z m1500 137 l0 -162 -52 -24 c-31 -14 -79 -50 -114 -85 -98 -99
-134 -196 -134 -363 l0 -103 -313 0 -312 0 -25 53 c-31 67 -130 166 -197 197
l-53 25 0 312 0 313 600 0 600 0 0 -163z m-302 -1224 c-3 -166 -5 -193 -24
-234 -31 -66 -78 -114 -142 -146 -47 -23 -70 -28 -132 -28 -125 0 -222 62
-274 174 -19 41 -21 68 -24 234 l-4 187 302 0 302 0 -4 -187z"/>
<path d="M610 3760 l0 -150 150 0 150 0 0 150 0 150 -150 0 -150 0 0 -150z"/>
<path d="M910 2560 l0 -150 150 0 150 0 0 150 0 150 -150 0 -150 0 0 -150z"/>
<path d="M910 1360 l0 -150 150 0 150 0 0 150 0 150 -150 0 -150 0 0 -150z"/>
<path d="M4210 1360 l0 -150 150 0 150 0 0 150 0 150 -150 0 -150 0 0 -150z"/>
<path d="M1810 760 l0 -150 150 0 150 0 0 150 0 150 -150 0 -150 0 0 -150z"/>
</g>
</svg>
