<?xml version="1.0" standalone="no"?>
<!DOCTYPE svg PUBLIC "-//W3C//DTD SVG 20010904//EN"
 "http://www.w3.org/TR/2001/REC-SVG-20010904/DTD/svg10.dtd">
<svg version="1.0" xmlns="http://www.w3.org/2000/svg"
 width="512.000000pt" height="512.000000pt" viewBox="0 0 512.000000 512.000000"
 preserveAspectRatio="xMidYMid meet">

<g transform="translate(0.000000,512.000000) scale(0.100000,-0.100000)"
fill="#000000" stroke="none">
<path d="M505 5015 c-14 -13 -25 -29 -25 -34 0 -6 -84 -646 -186 -1423 -134
-1018 -184 -1430 -181 -1475 6 -78 41 -141 105 -188 60 -43 124 -59 221 -53
104 6 165 40 237 129 66 83 108 104 233 118 162 18 262 84 328 219 l38 76 5
317 c5 301 6 319 26 345 39 53 71 69 134 69 63 0 95 -16 134 -69 20 -26 21
-44 26 -345 l5 -317 38 -76 c65 -133 166 -201 323 -218 130 -15 149 -24 232
-107 52 -53 93 -84 140 -106 66 -32 69 -32 222 -32 153 0 156 0 222 32 47 22
88 53 140 106 83 83 102 92 232 107 157 17 258 85 323 218 l38 76 5 317 c5
301 6 319 26 345 39 53 71 69 134 69 63 0 95 -16 134 -69 20 -26 21 -44 26
-344 l5 -317 32 -67 c64 -136 179 -213 341 -228 129 -12 161 -31 253 -151 14
-19 50 -48 80 -64 50 -28 61 -30 159 -30 98 0 109 2 159 30 90 50 141 134 141
232 0 24 -83 678 -185 1453 -102 776 -185 1415 -185 1420 0 6 -11 22 -25 35
l-24 25 -431 0 -431 0 -24 -25 c-25 -24 -25 -24 -25 -240 l0 -215 -320 0 -320
0 0 215 c0 216 0 216 -25 240 l-24 25 -431 0 -431 0 -24 -25 c-25 -24 -25 -24
-25 -240 l0 -215 -320 0 -320 0 0 215 c0 216 0 216 -25 240 l-24 25 -431 0
-431 0 -24 -25z m1112 -1125 c319 -110 471 -476 322 -778 -29 -59 -150 -202
-170 -202 -5 0 -9 21 -9 46 0 40 5 53 39 89 48 52 86 125 106 202 89 341 -238
667 -580 578 -256 -67 -415 -329 -350 -578 20 -77 58 -150 106 -202 34 -36 39
-49 39 -89 0 -25 -4 -46 -9 -46 -20 0 -141 143 -170 202 -165 335 37 730 409
802 55 10 206 -3 267 -24z m2240 0 c319 -110 471 -476 322 -778 -29 -59 -150
-202 -170 -202 -5 0 -9 18 -9 40 0 33 8 50 45 96 81 99 115 192 115 315 0 372
-405 601 -724 409 -158 -95 -254 -297 -226 -475 17 -106 54 -184 124 -263 28
-32 32 -42 28 -79 -2 -24 -8 -43 -12 -43 -20 0 -141 144 -169 202 -165 335 37
730 409 802 55 10 206 -3 267 -24z m-2286 -239 c69 -32 112 -74 147 -139 55
-103 52 -223 -8 -320 l-21 -34 -32 32 c-112 113 -322 113 -434 0 l-32 -32 -21
34 c-113 184 -16 424 195 479 49 13 158 2 206 -20z m2240 0 c69 -32 112 -74
147 -139 55 -103 52 -223 -8 -320 l-21 -34 -32 32 c-112 113 -322 113 -434 0
l-32 -32 -21 34 c-113 184 -16 424 195 479 49 13 158 2 206 -20z"/>
<path d="M160 1483 l0 -280 80 -7 c110 -9 220 -46 318 -106 45 -27 119 -73
164 -100 45 -28 118 -62 162 -77 120 -40 352 -40 472 0 44 15 117 49 162 77
45 27 118 72 161 99 44 26 119 61 168 77 82 27 99 29 238 28 134 0 158 -3 231
-27 44 -15 117 -49 162 -77 45 -27 119 -73 164 -100 45 -28 118 -62 162 -77
74 -24 95 -27 236 -27 141 0 162 3 236 27 44 15 116 49 160 75 43 27 116 72
161 99 45 28 121 63 170 79 82 27 99 29 238 28 134 0 158 -3 231 -27 44 -15
117 -49 162 -77 45 -27 119 -73 164 -100 98 -60 208 -97 318 -106 l80 -7 0
280 0 280 -81 7 c-107 9 -223 48 -320 108 -44 26 -116 71 -161 98 -45 28 -118
62 -162 77 -74 24 -95 27 -236 27 -141 0 -162 -3 -236 -27 -44 -15 -118 -50
-165 -78 -46 -29 -120 -74 -163 -101 -44 -26 -116 -60 -160 -75 -73 -24 -97
-27 -231 -27 -139 -1 -156 1 -238 28 -49 16 -124 51 -168 77 -43 27 -116 72
-161 99 -45 28 -118 62 -162 77 -74 24 -95 27 -236 27 -141 0 -162 -3 -236
-27 -44 -15 -117 -49 -162 -77 -45 -27 -119 -73 -164 -100 -45 -28 -118 -62
-162 -77 -73 -24 -97 -27 -231 -27 -139 -1 -156 1 -238 28 -49 16 -123 50
-165 76 -42 26 -115 70 -161 99 -101 61 -211 98 -321 107 l-80 7 0 -280z"/>
<path d="M160 683 l0 -280 80 -7 c110 -9 220 -46 318 -106 45 -27 119 -73 164
-100 45 -28 118 -62 162 -77 74 -24 95 -27 236 -27 141 0 162 3 236 27 44 15
117 49 162 77 45 27 118 72 161 99 44 26 119 61 168 77 82 27 99 29 238 28
134 0 158 -3 231 -27 44 -15 117 -49 162 -77 45 -27 119 -73 164 -100 45 -28
118 -62 162 -77 74 -24 95 -27 236 -27 141 0 162 3 236 27 44 15 116 49 160
75 43 27 116 72 161 99 45 28 121 63 170 79 82 27 99 29 238 28 134 0 158 -3
231 -27 44 -15 117 -49 162 -77 45 -27 119 -73 164 -100 98 -60 208 -97 318
-106 l80 -7 0 280 0 280 -81 7 c-107 9 -223 48 -320 108 -44 26 -116 71 -161
98 -45 28 -118 62 -162 77 -74 24 -95 27 -236 27 -141 0 -162 -3 -236 -27 -44
-15 -118 -50 -165 -78 -46 -29 -120 -74 -163 -101 -44 -26 -116 -60 -160 -75
-73 -24 -97 -27 -231 -27 -139 -1 -156 1 -238 28 -49 16 -124 51 -168 77 -43
27 -116 72 -161 99 -45 28 -118 62 -162 77 -74 24 -95 27 -236 27 -141 0 -162
-3 -236 -27 -44 -15 -117 -49 -162 -77 -45 -27 -119 -73 -164 -100 -45 -28
-118 -62 -162 -77 -73 -24 -97 -27 -231 -27 -139 -1 -156 1 -238 28 -49 16
-123 50 -165 76 -42 26 -115 70 -161 99 -101 61 -211 98 -321 107 l-80 7 0
-280z"/>
</g>
</svg>
