<?xml version="1.0" standalone="no"?>
<!DOCTYPE svg PUBLIC "-//W3C//DTD SVG 20010904//EN"
 "http://www.w3.org/TR/2001/REC-SVG-20010904/DTD/svg10.dtd">
<svg version="1.0" xmlns="http://www.w3.org/2000/svg"
 width="512.000000pt" height="512.000000pt" viewBox="0 0 512.000000 512.000000"
 preserveAspectRatio="xMidYMid meet">

<g transform="translate(0.000000,512.000000) scale(0.100000,-0.100000)"
fill="#000000" stroke="none">
<path d="M2000 4348 c0 -69 37 -479 95 -1057 52 -519 95 -953 95 -963 0 -17
18 -18 370 -18 288 0 372 3 375 13 12 35 195 1940 195 2031 l0 106 -565 0
-565 0 0 -112z"/>
<path d="M1584 3897 c-66 -35 -134 -73 -152 -86 l-32 -22 0 -445 0 -444 -150
0 -150 0 0 328 -1 327 -83 -86 c-242 -252 -429 -591 -517 -935 -50 -200 -60
-301 -66 -676 l-6 -348 2133 0 2132 0 -4 343 c-6 370 -16 477 -68 682 -88 351
-308 737 -554 975 l-46 44 0 -327 0 -327 -150 0 -150 0 0 448 0 447 -83 47
c-98 56 -228 121 -232 116 -3 -3 -196 -1914 -195 -1935 0 -10 -136 -13 -645
-13 -447 0 -645 3 -645 11 0 5 -43 437 -95 959 -52 522 -95 956 -95 964 0 25
-17 19 -146 -47z"/>
<path d="M127 1082 l-127 -127 0 -148 0 -147 2560 0 2560 0 0 148 0 147 -128
128 -127 127 -2305 0 -2305 0 -128 -128z"/>
</g>
</svg>
