<?xml version="1.0" standalone="no"?>
<!DOCTYPE svg PUBLIC "-//W3C//DTD SVG 20010904//EN"
 "http://www.w3.org/TR/2001/REC-SVG-20010904/DTD/svg10.dtd">
<svg version="1.0" xmlns="http://www.w3.org/2000/svg"
 width="512.000000pt" height="512.000000pt" viewBox="0 0 512.000000 512.000000"
 preserveAspectRatio="xMidYMid meet">

<g transform="translate(0.000000,512.000000) scale(0.100000,-0.100000)"
fill="#000000" stroke="none">
<path d="M3472 4862 l-523 -257 3 -540 c4 -520 5 -543 26 -619 50 -180 177
-374 308 -472 184 -137 705 -485 716 -478 97 56 736 502 774 540 111 111 206
279 244 429 18 75 20 114 20 611 l0 530 -516 255 c-284 140 -519 255 -522 256
-4 1 -242 -113 -530 -255z m987 -707 c32 -16 41 -33 41 -76 0 -34 -15 -50
-396 -423 -199 -195 -225 -216 -255 -216 -30 0 -51 17 -201 168 -180 180 -188
193 -148 245 26 32 63 41 98 23 15 -8 79 -67 142 -130 l115 -116 265 264 c146
145 272 266 280 269 24 9 29 8 59 -8z"/>
<path d="M1168 3217 c-587 -469 -1072 -857 -1079 -864 -9 -9 27 -55 156 -197
92 -102 172 -186 176 -186 5 0 403 316 886 703 483 387 889 709 901 716 13 7
34 10 47 7 13 -3 423 -326 910 -716 488 -391 891 -710 895 -710 8 0 333 355
338 369 2 5 -30 36 -71 69 l-74 61 -114 -79 c-81 -56 -123 -79 -145 -80 -24 0
-107 53 -390 246 -459 314 -481 332 -568 436 -139 167 -244 427 -247 606 l0
47 -267 210 c-146 116 -271 211 -277 212 -5 1 -490 -382 -1077 -850z"/>
<path d="M1513 2632 l-722 -577 0 -1027 -1 -1028 390 0 390 0 0 664 c0 656 0
664 21 690 l20 26 629 0 629 0 28 -24 28 -24 3 -666 2 -666 385 0 385 0 0
1023 0 1023 -724 579 c-398 319 -728 580 -733 582 -4 1 -333 -258 -730 -575z"/>
<path d="M1730 610 l0 -610 520 0 520 0 0 610 0 610 -520 0 -520 0 0 -610z"/>
</g>
</svg>
