<?xml version="1.0" standalone="no"?>
<!DOCTYPE svg PUBLIC "-//W3C//DTD SVG 20010904//EN"
 "http://www.w3.org/TR/2001/REC-SVG-20010904/DTD/svg10.dtd">
<svg version="1.0" xmlns="http://www.w3.org/2000/svg"
 width="100.000000pt" height="100.000000pt" viewBox="0 0 100.000000 100.000000"
 preserveAspectRatio="xMidYMid meet">

<g transform="translate(0.000000,100.000000) scale(0.100000,-0.100000)"
fill="#000000" stroke="none">
<path d="M653 818 c-79 -79 -143 -149 -143 -155 0 -28 24 -23 60 12 l37 37 5
-64 c3 -35 1 -71 -4 -81 -6 -12 -5 -23 3 -33 10 -12 32 15 130 163 l119 178 0
-218 c0 -156 -4 -223 -12 -237 -10 -16 -10 -24 0 -40 6 -11 12 -28 12 -39 0
-11 14 -29 30 -41 32 -23 39 -50 15 -70 -21 -17 -48 -9 -62 20 -15 31 -37 32
-41 3 -5 -32 39 -73 78 -73 41 0 80 39 80 81 0 22 -9 39 -31 60 -29 27 -31 32
-19 54 10 20 11 30 2 48 -8 15 -13 106 -15 277 l-2 255 -50 3 -50 3 -142 -143z
m171 74 c-9 -16 -25 -39 -35 -53 l-19 -24 0 34 c0 39 24 71 52 71 18 0 18 -1
2 -28z m-90 -84 c6 -27 5 -28 -31 -28 l-37 0 29 30 c16 16 29 29 30 27 1 -1 5
-14 9 -29z m-29 -95 c-10 -16 -25 -39 -34 -53 l-16 -24 -6 44 c-4 25 -5 48 -2
53 2 4 20 7 40 7 l35 0 -17 -27z"/>
<path d="M120 660 c-18 -18 -20 -33 -20 -160 0 -127 2 -142 20 -160 13 -13 33
-20 60 -20 32 0 40 -4 40 -19 0 -15 -10 -19 -56 -23 -46 -4 -61 -10 -87 -37
-27 -27 -32 -39 -32 -81 0 -43 5 -54 33 -82 l32 -33 270 0 270 0 32 33 c28 28
33 39 33 82 0 42 -5 54 -32 81 -26 27 -41 33 -87 37 -46 4 -56 8 -56 23 0 12
7 19 20 19 40 0 60 35 60 103 0 62 -1 65 -60 142 -93 122 -77 115 -261 115
-146 0 -161 -2 -179 -20z m395 -102 c36 -46 65 -86 65 -90 0 -5 -37 -8 -83 -8
l-83 0 -22 84 c-12 46 -22 87 -22 90 0 3 18 6 40 6 38 0 43 -4 105 -82z m-15
-258 c0 -19 -7 -20 -120 -20 -113 0 -120 1 -120 20 0 19 7 20 120 20 113 0
120 -1 120 -20z m-310 -115 c26 -32 -13 -81 -47 -59 -23 14 -28 41 -13 59 16
19 44 19 60 0z m120 0 c15 -18 10 -45 -12 -59 -35 -22 -74 27 -48 59 16 19 44
19 60 0z m200 0 c15 -18 10 -45 -12 -59 -35 -22 -74 27 -48 59 16 19 44 19 60
0z m120 0 c15 -18 10 -45 -12 -59 -35 -22 -74 27 -48 59 16 19 44 19 60 0z"/>
</g>
</svg>
