<?xml version="1.0" standalone="no"?>
<!DOCTYPE svg PUBLIC "-//W3C//DTD SVG 20010904//EN"
 "http://www.w3.org/TR/2001/REC-SVG-20010904/DTD/svg10.dtd">
<svg version="1.0" xmlns="http://www.w3.org/2000/svg"
 width="512.000000pt" height="512.000000pt" viewBox="0 0 512.000000 512.000000"
 preserveAspectRatio="xMidYMid meet">

<g transform="translate(0.000000,512.000000) scale(0.100000,-0.100000)"
fill="#000000" stroke="none">
<path d="M460 4780 l0 -340 -130 0 -130 0 0 -150 0 -150 130 0 130 0 0 -280 0
-280 -130 0 -130 0 0 -150 0 -150 130 0 130 0 0 -285 0 -285 -130 0 -130 0 0
-150 0 -150 130 0 130 0 0 -285 0 -285 -130 0 -130 0 0 -150 0 -150 130 0 130
0 0 -280 0 -280 -130 0 -130 0 0 -150 0 -150 130 0 130 0 0 -340 0 -340 2230
0 2230 0 0 2560 0 2560 -2230 0 -2230 0 0 -340z m4160 -2220 l0 -2260 -1930 0
-1930 0 2 188 3 187 133 3 132 3 0 149 0 150 -135 0 -135 0 0 280 0 279 133 3
132 3 3 147 3 147 -133 3 -133 3 -3 283 -2 282 135 0 135 0 0 150 0 150 -135
0 -135 0 2 283 3 282 133 3 133 3 -3 147 -3 147 -132 3 -133 3 0 279 0 280
135 0 135 0 0 150 0 149 -132 3 -133 3 -3 188 -2 187 1930 0 1930 0 0 -2260z"/>
<path d="M2175 4050 l-240 -240 -112 112 -113 113 -106 -106 -105 -105 216
-215 c119 -117 219 -212 223 -210 4 2 162 157 352 343 l344 338 -104 105 c-58
58 -107 105 -110 105 -3 0 -113 -108 -245 -240z"/>
<path d="M3090 3800 l0 -150 485 0 485 0 0 150 0 150 -485 0 -485 0 0 -150z"/>
<path d="M2175 2790 l-240 -240 -112 112 -113 113 -107 -108 -108 -107 215
-215 c118 -118 219 -215 225 -215 6 0 165 155 355 345 l345 345 -105 105 c-58
58 -107 105 -110 105 -3 0 -113 -108 -245 -240z"/>
<path d="M3090 2560 l0 -150 485 0 485 0 0 150 0 150 -485 0 -485 0 0 -150z"/>
<path d="M2175 1530 l-240 -240 -112 112 -113 113 -107 -108 -108 -107 215
-215 c118 -118 219 -215 225 -215 6 0 165 155 355 345 l345 345 -105 105 c-58
58 -107 105 -110 105 -3 0 -113 -108 -245 -240z"/>
<path d="M3090 1220 l0 -150 485 0 485 0 0 150 0 150 -485 0 -485 0 0 -150z"/>
</g>
</svg>
